<svg xmlns="http://www.w3.org/2000/svg" viewBox="0 0 32 32" width="32" height="32">
  <!-- Background circle -->
  <circle cx="16" cy="16" r="15" fill="#f0f8ff" stroke="#e6f3ff" stroke-width="1"/>
  
  <!-- Watercolor brush shape -->
  <g transform="translate(16, 16)">
    <!-- Brush handle -->
    <rect x="-2" y="2" width="4" height="10" fill="#8b4513" rx="1"/>
    
    <!-- Metal ferrule -->
    <rect x="-2.5" y="-1" width="5" height="3" fill="#c0c0c0"/>
    
    <!-- Brush bristles with watercolor effect -->
    <path d="M -3,-1 Q -4,-8 -2,-10 Q 0,-11 0,-11 Q 0,-11 2,-10 Q 4,-8 3,-1 Z" 
          fill="url(#watercolor-gradient)" opacity="0.8"/>
    
    <!-- Water droplet -->
    <path d="M 0,-11 Q -2,-13 0,-15 Q 2,-13 0,-11" 
          fill="url(#droplet-gradient)" opacity="0.9"/>
  </g>
  
  <!-- Florida-inspired tropical leaf accent -->
  <path d="M 24,8 Q 26,10 24,12 Q 22,10 24,8" 
        fill="#4ade80" opacity="0.6" transform="rotate(25 24 10)"/>
  
  <!-- Watercolor paint spots -->
  <circle cx="8" cy="24" r="3" fill="#ff6b9d" opacity="0.3"/>
  <circle cx="10" cy="22" r="2" fill="#66d9ef" opacity="0.3"/>
  <circle cx="23" cy="22" r="2.5" fill="#feca57" opacity="0.3"/>
  
  <!-- Gradients -->
  <defs>
    <linearGradient id="watercolor-gradient" x1="0%" y1="0%" x2="0%" y2="100%">
      <stop offset="0%" style="stop-color:#ff6b9d;stop-opacity:0.7"/>
      <stop offset="50%" style="stop-color:#c44569;stop-opacity:0.8"/>
      <stop offset="100%" style="stop-color:#ff6b9d;stop-opacity:0.6"/>
    </linearGradient>
    
    <linearGradient id="droplet-gradient" x1="0%" y1="0%" x2="0%" y2="100%">
      <stop offset="0%" style="stop-color:#66d9ef;stop-opacity:0.9"/>
      <stop offset="100%" style="stop-color:#4ecdc4;stop-opacity:0.7"/>
    </linearGradient>
  </defs>
</svg>